<svg width="50px" height="50px" viewbox="0 0 50 50" version="1.1" xmlns="http://www.w3.org/2000/svg" xmlns:xlink="http://www.w3.org/1999/xlink" xmlns:sketch="http://www.bohemiancoding.com/sketch/ns">
    <!-- Generator: Sketch 3.5.2 (25235) - http://www.bohemiancoding.com/sketch-->
    <title>Oval 117 Copy</title>
    <desc>Created with Sketch.</desc>
    <defs></defs>
    <g id="Welcome" stroke="none" stroke-width="1" fill="none" fill-rule="evenodd" sketch:type="MSPage">
        <g id="Главная" sketch:type="MSArtboardGroup" transform="translate(-625.000000, -663.000000)" fill="#FFFFFF">
            <path id="Oval-117-Copy" d="M650,713 C663.807119,713 675,701.807119 675,688 C675,674.192881 663.807119,663 650,663 C636.192881,663 625,674.192881 625,688 C625,701.807119 636.192881,713 650,713 Z M655.899987,689.801895 C655.57734,689.474624 655.054072,689.474624 654.731425,689.801895 L650.853781,693.734317 L650.853781,679.411725 C650.853781,678.948973 650.483739,678.57377 650.027499,678.57377 C649.571126,678.57377 649.201216,678.948973 649.201216,679.411725 L649.201216,693.734317 L645.323572,689.802029 C645.000793,689.474825 644.477657,689.474825 644.155011,689.802029 C643.832232,690.129301 643.832232,690.659827 644.155011,690.987099 L649.443218,696.349875 C649.604442,696.513444 649.816036,696.595295 650.027499,696.595295 C650.238961,696.595295 650.450357,696.513444 650.611779,696.349875 L655.899987,690.986964 C656.2227,690.659693 656.2227,690.129167 655.899987,689.801895 Z" sketch:type="MSShapeGroup"></path>
        </g>
    </g>
</svg>