<?xml version="1.0" standalone="no"?>
<!DOCTYPE svg PUBLIC "-//W3C//DTD SVG 20010904//EN"
 "http://www.w3.org/TR/2001/REC-SVG-20010904/DTD/svg10.dtd">
<svg version="1.0" xmlns="http://www.w3.org/2000/svg"
 width="300.000000pt" height="275.000000pt" viewBox="0 0 300.000000 275.000000"
 preserveAspectRatio="xMidYMid meet">
<metadata>
Created by potrace 1.10, written by Peter Selinger 2001-2011
</metadata>
<g transform="translate(0.000000,275.000000) scale(0.100000,-0.100000)"
fill="#000000" stroke="none">
<path d="M1380 2096 l0 -654 -207 -148 c-115 -81 -215 -147 -223 -147 -8 0
-75 21 -149 47 -73 26 -134 45 -136 44 -4 -7 -75 -218 -75 -226 0 -5 34 -19
76 -32 41 -13 77 -27 79 -30 2 -4 -43 -58 -100 -121 -58 -63 -105 -117 -105
-120 0 -3 40 -42 88 -87 l89 -81 163 177 c89 97 179 190 199 205 l36 28 8 -38
c14 -62 1 -260 -22 -333 -39 -126 -119 -219 -236 -275 -99 -47 -152 -55 -356
-55 l-179 0 -38 34 -37 35 1 143 c2 382 141 836 351 1152 76 114 180 224 237
250 36 17 41 17 72 2 65 -31 119 -149 155 -340 15 -77 25 -113 33 -109 6 4 41
29 79 56 l67 49 0 149 0 149 -36 71 c-43 87 -112 162 -179 197 -44 24 -62 27
-145 27 -91 0 -98 -2 -167 -39 -300 -160 -590 -708 -687 -1296 -22 -137 -39
-365 -32 -438 12 -130 100 -253 220 -309 58 -27 69 -28 244 -31 100 -2 218 1
262 7 296 40 519 225 611 506 21 64 23 95 28 345 l6 274 63 44 62 43 63 -43
62 -44 6 -274 c5 -250 7 -281 28 -345 74 -226 240 -398 453 -470 112 -37 213
-47 420 -43 175 3 186 4 244 31 120 56 208 179 220 309 7 73 -10 301 -32 438
-97 588 -387 1136 -687 1296 -69 37 -76 39 -167 39 -83 0 -101 -3 -145 -27
-67 -35 -136 -110 -179 -197 l-36 -71 0 -149 0 -149 68 -49 c37 -27 72 -52 78
-56 8 -4 18 32 33 109 36 191 90 309 155 340 31 15 36 15 72 -2 57 -26 161
-136 237 -250 210 -316 349 -770 351 -1152 l1 -143 -37 -35 -38 -34 -182 0
c-206 0 -276 12 -368 61 -108 57 -184 150 -221 269 -23 73 -36 271 -22 333 l8
38 36 -28 c20 -15 110 -108 199 -205 l163 -177 89 81 c48 45 88 84 88 87 0 3
-47 57 -105 120 -57 63 -102 117 -100 121 2 3 38 17 79 30 42 13 76 27 76 32
0 8 -71 220 -76 226 -1 2 -62 -18 -136 -44 -73 -26 -140 -47 -148 -47 -8 0
-108 66 -222 147 l-208 148 0 654 0 654 -120 0 -120 0 0 -654z"/>
</g>
</svg>
