<?xml version="1.0" standalone="no"?>
<!DOCTYPE svg PUBLIC "-//W3C//DTD SVG 20010904//EN"
 "http://www.w3.org/TR/2001/REC-SVG-20010904/DTD/svg10.dtd">
<svg version="1.0" xmlns="http://www.w3.org/2000/svg"
 width="300.000000pt" height="157.000000pt" viewBox="0 0 300.000000 157.000000"
 preserveAspectRatio="xMidYMid meet">
<metadata>
Created by potrace 1.10, written by Peter Selinger 2001-2011
</metadata>
<g transform="translate(0.000000,157.000000) scale(0.050000,-0.050000)"
fill="#000000" stroke="none">
<path d="M460 3039 c0 -103 39 -296 153 -755 50 -202 88 -369 84 -372 -4 -3
-151 -66 -327 -140 -392 -165 -383 -156 -206 -209 186 -55 148 -59 519 59 355
114 330 113 703 28 256 -57 827 -284 1001 -396 68 -44 177 -100 243 -125 113
-43 117 -47 70 -65 -27 -10 -549 -205 -1160 -433 -611 -228 -1113 -418 -1117
-421 -12 -12 154 -90 192 -90 20 0 125 -22 233 -50 267 -68 215 -77 966 170
766 252 685 230 672 182 -7 -28 19 -54 112 -111 67 -41 122 -82 122 -92 0 -25
136 -59 241 -59 164 0 231 108 139 225 -50 65 -50 93 3 201 l42 88 283 88 282
89 250 -35 c138 -19 336 -40 440 -47 105 -7 217 -21 251 -31 43 -13 89 -10
155 10 l94 28 44 -63 c24 -35 67 -94 95 -131 l51 -69 -60 15 c-33 9 -127 23
-210 32 -82 8 -166 22 -185 30 -65 26 -40 -64 30 -112 36 -24 106 -82 155
-128 106 -100 185 -130 339 -130 224 0 211 114 -54 461 l-82 108 163 62 c90
34 182 71 204 83 22 12 85 28 140 36 304 42 321 103 64 240 -41 21 -74 51 -74
66 0 26 -444 249 -548 275 -101 26 -20 103 584 559 233 176 423 327 424 335 0
8 -47 46 -105 85 -189 125 -457 140 -428 23 12 -45 -203 -173 -1011 -599 l-93
-49 88 -64 c281 -202 219 -270 -354 -394 -200 -43 -207 -39 -247 139 -60 273
32 359 387 361 l67 0 -57 30 c-372 195 -737 219 -1834 122 -522 -46 -614 -40
-873 59 -230 87 -293 160 -530 609 -122 228 -173 280 -325 325 -167 51 -205
41 -205 -53z m2599 -1128 c44 -53 5 -311 -47 -311 -186 0 -367 97 -385 205
-14 85 -6 89 237 114 80 9 152 17 159 18 6 2 23 -10 36 -26z m387 -14 c179
-28 168 -16 225 -239 58 -228 64 -221 -181 -184 -242 37 -243 38 -273 229 -36
232 -32 236 229 194z m-1766 -148 c149 -39 513 -151 810 -248 594 -194 499
-175 1958 -392 330 -49 603 -94 609 -99 37 -37 -501 40 -1957 281 -1019 169
-1093 186 -1347 306 -115 54 -269 118 -341 142 -132 44 -157 81 -56 81 30 0
176 -32 324 -71z m1220 -1184 c-2 -60 -135 -105 -300 -103 -89 2 -88 2 80 59
179 60 220 69 220 44z"/>
</g>
</svg>
