<?xml version="1.0" standalone="no"?>
<!DOCTYPE svg PUBLIC "-//W3C//DTD SVG 20010904//EN"
 "http://www.w3.org/TR/2001/REC-SVG-20010904/DTD/svg10.dtd">
<svg version="1.0" xmlns="http://www.w3.org/2000/svg"
 width="300.000000pt" height="300.000000pt" viewBox="0 0 300.000000 300.000000"
 preserveAspectRatio="xMidYMid meet">
<metadata>
Created by potrace 1.10, written by Peter Selinger 2001-2011
</metadata>
<g transform="translate(0.000000,300.000000) scale(0.100000,-0.100000)"
fill="#000000" stroke="none">
<path d="M203 2746 c-61 -20 -96 -48 -128 -108 -27 -48 -30 -64 -33 -163 -3
-96 0 -126 27 -235 17 -68 31 -132 31 -141 0 -10 -16 -48 -36 -84 -19 -37 -33
-73 -30 -81 14 -37 112 -70 164 -55 l30 9 1 -55 c1 -104 89 -242 177 -279 159
-66 255 86 171 270 -43 93 -136 176 -198 176 -17 0 -20 4 -15 23 4 12 10 40
13 62 5 39 3 42 -55 92 -89 78 -124 172 -102 277 16 79 47 120 92 124 54 5 99
-46 197 -220 109 -192 157 -246 272 -304 105 -52 159 -98 187 -157 11 -23 34
-117 52 -207 44 -230 76 -353 111 -421 25 -50 84 -239 76 -245 -1 -1 -17 -9
-34 -18 -39 -20 -63 -62 -63 -111 0 -19 23 -97 51 -173 38 -102 53 -159 59
-222 12 -126 48 -268 70 -280 36 -19 206 -30 303 -20 129 14 135 16 147 59 25
94 41 176 50 257 7 67 21 119 56 209 34 86 47 135 48 173 1 49 -2 56 -35 86
-20 18 -42 35 -49 38 -19 6 17 141 65 247 44 100 57 148 105 390 56 282 69
305 236 389 44 22 94 52 111 66 39 33 113 142 193 284 77 137 124 185 178 180
32 -3 40 -9 62 -48 21 -38 25 -58 25 -130 0 -107 -27 -167 -100 -222 -68 -51
-74 -77 -40 -160 6 -14 2 -18 -15 -18 -62 0 -152 -74 -196 -162 -32 -63 -44
-170 -24 -218 21 -50 65 -80 116 -80 58 0 109 27 163 85 54 59 82 122 89 201
l5 62 28 -10 c38 -13 132 14 153 44 14 20 13 26 -19 84 -43 77 -44 97 -4 261
27 108 31 141 27 213 -11 185 -91 275 -248 275 -81 0 -128 -18 -201 -77 -45
-36 -121 -138 -185 -247 -118 -200 -244 -267 -379 -199 -99 50 -251 90 -391
103 -125 13 -372 -33 -481 -89 -27 -13 -68 -29 -91 -36 -96 -25 -207 42 -292
177 -108 171 -156 237 -208 283 -91 81 -189 107 -289 76z m1571 -676 c93 -6
173 -13 179 -17 5 -3 -15 -14 -46 -23 -64 -20 -126 -62 -155 -105 -24 -35
-137 -367 -158 -464 -8 -36 -19 -149 -25 -251 -6 -102 -16 -216 -22 -255 -11
-66 -14 -70 -39 -73 -22 -3 -30 2 -37 20 -13 34 -29 183 -36 333 -4 72 -13
163 -20 203 -20 103 -131 440 -161 484 -29 45 -87 85 -157 109 -68 23 -53 28
114 38 198 12 373 12 563 1z"/>
</g>
</svg>
