<svg width="130px" height="132px" viewBox="0 0 130 132" version="1.1" xmlns="http://www.w3.org/2000/svg" xmlns:xlink="http://www.w3.org/1999/xlink" xmlns:sketch="http://www.bohemiancoding.com/sketch/ns">
    <!-- Generator: Sketch 3.5.2 (25235) - http://www.bohemiancoding.com/sketch-->
    <title>zvd_logo</title>
    <desc>Created with Sketch.</desc>
    <defs>
        <path id="path-1" d="M0,0.488560976 L129.200741,0.488560976 L129.200741,132 L0,132 L0,0.488560976 Z"></path>
        <path id="path-3" d="M0,0.488560976 L129.200741,0.488560976 L129.200741,132 L0,132 L0,0.488560976 Z"></path>
        <path id="path-5" d="M0,0.488560976 L129.200741,0.488560976 L129.200741,132 L0,132"></path>
        <path id="path-7" d="M0,0.488560976 L129.200741,0.488560976 L129.200741,132 L0,132 L0,0.488560976 Z"></path>
    </defs>
    <g id="Welcome" stroke="none" stroke-width="1" fill="none" fill-rule="evenodd" sketch:type="MSPage">
        <g id="Главная" sketch:type="MSArtboardGroup" transform="translate(-141.000000, -62.000000)">
            <g id="zvd_logo" sketch:type="MSLayerGroup" transform="translate(141.000000, 62.000000)">
                <path id="Fill-1" d="M84.8690556,3.35553659 L81.6968951,3.77729268 L83.9566481,6.04543902 L83.374858,9.20056098 L86.2268333,7.74292683 L89.0410926,9.273 L88.5411543,6.10258537 L90.8602901,3.89158537 L87.6985617,3.3917561 L86.3175123,0.494195122 L84.8690556,3.35553659 Z" fill="#FFFFFF" sketch:type="MSShapeGroup"></path>
                <path id="Fill-2" d="M71.8690556,0.4884 L70.414179,3.35698537 L67.242821,3.77552195 L69.5065864,6.0468878 L68.9239938,9.20200976 L71.7783765,7.74437561 L74.5910309,9.27283902 L74.0910926,6.10403415 L76.4110309,3.88981463 L73.2476975,3.39079024 L71.8690556,0.4884 Z" fill="#FFFFFF" sketch:type="MSShapeGroup"></path>
                <path id="Fill-3" d="M57.4188333,0.4884 L55.9639568,3.3521561 L52.7901914,3.7739122 L55.0547593,6.04286341 L54.476179,9.19798537 L57.3281543,7.7411561 L60.1416111,9.27283902 L59.6400679,6.10242439 L61.9608086,3.88900976 L58.8006852,3.38918049 L57.4188333,0.4884 Z" fill="#FFFFFF" sketch:type="MSShapeGroup"></path>
                <path id="Fill-4" d="M41.5133333,3.35119024 L38.3403704,3.77375122 L40.6057407,6.04672683 L40.0247531,9.19943415 L42.874321,7.7418 L45.6933951,9.27267805 L45.1894444,6.1062878 L47.5093827,3.89045854 L44.3460494,3.38821463 L42.9666049,0.491458537 L41.5133333,3.35119024 Z" fill="#FFFFFF" sketch:type="MSShapeGroup"></path>
                <g id="Group-56">
                    <path id="Fill-5" d="M124.893327,100.320805 C126.011167,99.7565854 126.924377,100.322415 126.923574,101.57722 L126.923574,102.023927 C126.922772,103.278732 125.898019,104.304951 124.646969,104.303341 L119.286475,104.299317 C118.035426,104.298512 117.925488,103.836512 119.043327,103.272293 L124.893327,100.320805 Z" fill="#FFFFFF" sketch:type="MSShapeGroup"></path>
                    <path id="Fill-7" d="M65.4363827,110.241007 L65.4548395,112.238715 C65.4548395,113.181227 65.4066914,114.003812 65.3136049,114.704861 C65.2245309,115.406715 65.0808889,116.024861 64.8915062,116.568959 C64.7053333,117.119495 64.4645926,117.636227 64.1532346,118.137666 L69.3395926,118.139276 L69.3468148,110.243422 L65.4363827,110.241007 Z M59.9571235,118.128812 C60.3158272,117.663593 60.6095309,117.161349 60.8414444,116.618861 C61.0701481,116.073154 61.2330494,115.43408 61.3397778,114.691178 C61.4424938,113.949885 61.4954568,113.056471 61.4978642,112.001276 L61.4978642,106.884666 L73.5373086,106.89352 L73.5284815,118.1433 L74.8148395,118.147324 L74.8148395,121.498032 L70.8554568,121.493202 L62.6558272,121.485154 L58.7237284,121.47952 L58.7237284,118.128812 L59.9571235,118.128812 Z" fill="#FFFFFF" sketch:type="MSShapeGroup"></path>
                    <path id="Fill-9" d="M90.3283333,106.910502 L90.3114815,121.510185 L86.1450617,121.503746 L86.1538889,115.781868 L80.7099383,115.777039 L80.704321,121.498917 L76.542716,121.494893 L76.5539506,106.896015 L80.7171605,106.901649 L80.7099383,112.390112 L86.1579012,112.398966 L86.1579012,106.905673 L90.3283333,106.910502 Z" fill="#FFFFFF" sketch:type="MSShapeGroup"></path>
                    <path id="Fill-11" d="M108.028235,121.525317 L112.198667,121.526122 L112.206691,106.929659 L108.045086,106.925634 L108.028235,121.525317 Z M96.9974938,118.323512 L99.8887901,118.323512 C100.505086,118.323512 100.924778,118.232561 101.163914,118.041 C101.400642,117.851049 101.52021,117.477585 101.52021,116.924634 C101.52021,116.335463 101.403049,115.941878 101.166321,115.743073 C100.930395,115.546683 100.509901,115.446878 99.892,115.446878 L96.9999012,115.442049 L96.9974938,118.323512 Z M97.0031111,112.249098 L100.826877,112.251512 C101.896568,112.252317 102.788111,112.417317 103.514346,112.737659 C104.238173,113.05639 104.775827,113.560244 105.140951,114.241171 C105.501259,114.931756 105.681815,115.814707 105.687432,116.890829 C105.681815,117.968561 105.501259,118.848293 105.139346,119.532439 C104.775827,120.213366 104.238173,120.718829 103.523975,121.04078 C102.809778,121.356293 101.921444,121.520488 100.871815,121.520488 L92.8350864,121.510829 L92.8439136,106.911951 L97.0055185,106.915976 L97.0031111,112.249098 Z" fill="#FFFFFF" sketch:type="MSShapeGroup"></path>
                    <g id="Group-15">
                        <mask id="mask-2" sketch:name="Clip 14" fill="white">
                            <use xlink:href="#path-1"></use>
                        </mask>
                        <g id="Clip-14"></g>
                        <path id="Fill-13" d="M114.75092,106.934407 L118.707093,106.934407 L118.695056,116.550285 L118.841907,116.54948 L123.728142,106.940041 L129.200981,106.943261 L129.191352,121.543749 L125.232772,121.539724 L125.241599,111.928676 L125.101167,111.928676 L120.401907,121.5357 L114.736475,121.530871 L114.75092,106.934407 Z" fill="#FFFFFF" sketch:type="MSShapeGroup" mask="url(#mask-2)"></path>
                    </g>
                    <path id="Fill-16" d="M19.3029938,115.388524 L19.3029938,118.249061 L22.4478704,118.251476 C22.9125,118.251476 23.2856481,118.212037 23.5625,118.129134 C23.8377469,118.047841 24.0399691,117.900549 24.1707716,117.686451 C24.2975617,117.471549 24.3657716,117.167305 24.3657716,116.777744 C24.3657716,116.195012 24.239784,115.821549 23.9870062,115.650915 C23.7310185,115.478671 23.2479321,115.388524 22.5353395,115.388524 L19.3029938,115.388524 Z M19.3110185,110.037695 L19.3062037,112.680915 L22.3090432,112.690573 C22.8226235,112.690573 23.2037963,112.652744 23.4525617,112.580305 C23.6973148,112.509476 23.8682407,112.374256 23.9669444,112.175451 C24.068858,111.978256 24.1194136,111.683671 24.1194136,111.288476 C24.1194136,110.820037 24.0375617,110.49889 23.8658333,110.316988 C23.6916975,110.135085 23.341821,110.043329 22.808179,110.043329 L19.3110185,110.037695 Z M15.1413889,121.435573 L15.1534259,106.839915 L23.353858,106.847963 C24.484537,106.847963 25.4041667,106.93972 26.1039198,107.135305 C26.8076852,107.325256 27.3477469,107.694695 27.7241049,108.238793 C28.0964506,108.786915 28.2858333,109.565232 28.2858333,110.586622 C28.2858333,111.269963 28.216821,111.834988 28.0908333,112.277671 C27.9616358,112.725183 27.7136728,113.083354 27.3541667,113.37472 C26.9970679,113.663671 26.4891049,113.853622 25.8318827,113.955037 L25.8318827,114.110378 C26.5597222,114.151427 27.1278704,114.314012 27.515463,114.591695 C27.9142901,114.866963 28.1783025,115.232378 28.3227469,115.6815 C28.4599691,116.132232 28.5313889,116.700476 28.5273765,117.381402 C28.5273765,118.529159 28.3404012,119.399232 27.9616358,119.995646 C27.5892901,120.584012 27.0387963,120.972768 26.3286111,121.160305 C25.615216,121.355085 24.6474383,121.447646 23.4268827,121.444427 L15.1413889,121.435573 Z" fill="#FFFFFF" sketch:type="MSShapeGroup"></path>
                    <path id="Fill-18" d="M34.761679,110.052263 L34.7568642,112.721239 L41.4237778,112.725263 L41.4237778,115.428044 L34.7528519,115.421605 L34.748037,118.264434 L42.0015556,118.270068 L41.9959383,121.466239 L30.589642,121.453361 L30.6008765,106.852873 L41.860321,106.862532 L41.860321,110.062727 L34.761679,110.052263 Z" fill="#FFFFFF" sketch:type="MSShapeGroup"></path>
                    <path id="Fill-20" d="M10.497179,114.20141 L10.497179,114.134605 L10.497179,114.06619 C11.4633519,113.919702 12.1189691,113.573605 12.4519938,113.031117 C12.7834136,112.48219 12.9567469,111.690995 12.9567469,110.649483 C12.9567469,109.64419 12.6999568,108.854605 12.187179,108.278312 C11.6744012,107.70041 10.9377346,107.289922 9.9852037,107.058117 C9.02705556,106.823898 7.83057407,106.703166 6.40137654,106.703166 C4.9697716,106.703166 3.79094444,106.823898 2.86569753,107.066166 C1.93483333,107.30602 1.22464815,107.73502 0.734339506,108.341093 C0.251253086,108.94958 0.00409259259,109.785044 0.00329012346,110.851507 L0.00168518519,111.465629 L4.00199383,111.468849 C4.00199383,111.058361 4.0782284,110.746068 4.23952469,110.523117 C4.38637654,110.303385 4.62952469,110.153678 4.96094444,110.070776 C5.28995679,109.987068 5.75298148,109.947629 6.33396914,109.950044 C7.33384568,109.950044 7.9910679,110.062727 8.31205556,110.286483 C8.63304321,110.5038 8.7919321,110.862776 8.7919321,111.3618 C8.78952469,111.752971 8.73014198,112.0548 8.6097716,112.25602 C8.48940123,112.457239 8.30483333,112.597288 8.05205556,112.669727 C7.79767284,112.743776 7.44619136,112.77919 6.97754938,112.77919 L4.99625309,112.77758 L4.99625309,114.124946 L4.99625309,115.482776 L6.97754938,115.484385 C7.44217901,115.484385 7.79767284,115.52302 8.04964815,115.597873 C8.30162346,115.671922 8.48699383,115.811166 8.60656173,116.012385 C8.73014198,116.215215 8.78952469,116.51302 8.78952469,116.911434 C8.78952469,117.408044 8.62742593,117.7638 8.30483333,117.981922 C7.97903086,118.204068 7.32501852,118.314337 6.33075926,118.314337 C5.74174691,118.314337 5.28433951,118.273288 4.95532716,118.19119 C4.62390741,118.107483 4.38396914,117.95858 4.23069753,117.741263 C4.07180864,117.520727 3.99958642,117.201995 3.99958642,116.789093 L8.02469136e-05,116.788288 L8.02469136e-05,117.404824 C8.02469136e-05,118.465654 0.240018519,119.305946 0.723104938,119.91202 C1.2102037,120.521312 1.9227963,120.948702 2.85205556,121.190971 C3.78211728,121.435654 4.96094444,121.56041 6.38853704,121.56041 C7.82335185,121.56202 9.01501852,121.444507 9.97075926,121.212702 C10.9208827,120.976873 11.6655741,120.573629 12.1791543,120.001361 C12.6871173,119.419434 12.9511296,118.630654 12.9511296,117.627776 C12.9511296,116.584654 12.7834136,115.791849 12.448784,115.246141 C12.1165617,114.700434 11.4633519,114.351117 10.497179,114.20141" fill="#FFFFFF" sketch:type="MSShapeGroup"></path>
                    <path id="Fill-22" d="M54.6161296,114.244632 L54.6161296,114.173802 L54.6161296,114.110217 C55.5815,113.963729 56.2290926,113.613607 56.5669321,113.071924 C56.9007593,112.525412 57.0708827,111.729388 57.0708827,110.687876 C57.0708827,109.684193 56.8197099,108.899437 56.3013148,108.320729 C55.7957593,107.742022 55.0590926,107.334754 54.1033519,107.100534 C53.1524259,106.866315 51.9487222,106.747998 50.5163148,106.747998 C49.0847099,106.744778 47.9050802,106.866315 46.9782284,107.104559 C46.0489691,107.349241 45.3435988,107.775827 44.8492778,108.382705 C44.363784,108.992802 44.1166235,109.827461 44.1166235,110.88829 L44.1166235,111.505632 L48.1209444,111.505632 C48.1209444,111.099168 48.1923642,110.782046 48.3488457,110.56151 C48.5069321,110.345802 48.7476728,110.1969 49.0823025,110.109168 C49.4040926,110.03029 49.8647099,109.991656 50.4513148,109.991656 C51.4455741,109.991656 52.1084136,110.104339 52.4253889,110.32729 C52.7495864,110.542193 52.9092778,110.901973 52.9092778,111.398583 C52.9092778,111.790559 52.8450802,112.092388 52.7247099,112.296827 C52.6043395,112.497241 52.422179,112.636485 52.163784,112.712144 C51.9150185,112.783778 51.5539074,112.822412 51.0965,112.820802 L49.1111914,112.818388 L49.1111914,114.166559 L49.1079815,115.523583 L51.0940926,115.523583 C51.5474877,115.523583 51.9085988,115.563827 52.1581667,115.636266 C52.4133519,115.713534 52.6043395,115.848754 52.7215,116.054802 C52.8402654,116.258437 52.9004506,116.555437 52.9004506,116.952241 C52.9004506,117.448046 52.7463765,117.807827 52.422179,118.024339 C52.1011914,118.244876 51.4399568,118.357559 50.4481049,118.357559 C49.8582901,118.357559 49.3984753,118.31329 49.0726728,118.231998 C48.7388457,118.14668 48.4981049,117.997778 48.3416235,117.777241 C48.1867469,117.559924 48.1081049,117.244412 48.118537,116.83151 L44.1102037,116.829095 L44.1102037,117.440802 C44.1102037,118.504046 44.3533519,119.344339 44.8396481,119.956046 C45.3283519,120.562924 46.0369321,120.9879 46.9653889,121.229363 C47.8938457,121.476461 49.0742778,121.598802 50.5074877,121.601217 C51.9318704,121.601217 53.1339691,121.485315 54.0881049,121.251095 C55.0454506,121.016876 55.7789074,120.616851 56.2932901,120.038144 C56.8084753,119.460241 57.0652654,118.67468 57.0652654,117.668583 C57.0652654,116.625461 56.9007593,115.833461 56.5637222,115.286949 C56.2290926,114.745266 55.5815,114.396754 54.6161296,114.244632" fill="#FFFFFF" sketch:type="MSShapeGroup"></path>
                    <path id="Fill-24" d="M22.9096914,128.512544 L21.1378395,128.512544 L21.1378395,131.914763 L19.982284,131.914763 L19.982284,127.61752 L22.9096914,127.61752 L22.9096914,128.512544 Z" fill="#FFFFFF" sketch:type="MSShapeGroup"></path>
                    <g id="Group-28">
                        <mask id="mask-4" sketch:name="Clip 27" fill="white">
                            <use xlink:href="#path-3"></use>
                        </mask>
                        <g id="Clip-27"></g>
                        <path id="Fill-26" d="M24.2848827,129.811134 C24.2848827,130.202305 24.3506852,130.514598 24.4887099,130.753646 C24.627537,130.99028 24.8466111,131.108598 25.1547593,131.108598 C25.4532778,131.108598 25.6683395,130.99028 25.8087716,130.748012 C25.9492037,130.514598 26.0174136,130.199085 26.0174136,129.811134 L26.0174136,129.726622 C26.0174136,129.345915 25.9492037,129.034427 25.8087716,128.797793 C25.6683395,128.5515 25.4476605,128.433183 25.1459321,128.433183 C24.8466111,128.433183 24.629142,128.55472 24.4919198,128.797793 C24.3506852,129.040061 24.2848827,129.347524 24.2848827,129.726622 L24.2848827,129.811134 Z M23.1309321,129.726622 C23.1309321,129.089159 23.3098827,128.560354 23.6645741,128.15228 C24.0224753,127.742598 24.5135864,127.538963 25.1459321,127.538963 C25.7838951,127.538963 26.2758086,127.742598 26.6369198,128.15228 C26.9908086,128.560354 27.1737716,129.085939 27.1737716,129.726622 L27.1737716,129.811134 C27.1737716,130.456646 26.9964259,130.984646 26.6369198,131.3895 C26.2822284,131.792744 25.7879074,132.000402 25.1547593,132.000402 C24.5192037,132.000402 24.0288951,131.792744 23.667784,131.3895 C23.3098827,130.984646 23.1309321,130.456646 23.1309321,129.811134 L23.1309321,129.726622 Z" fill="#FFFFFF" sketch:type="MSShapeGroup" mask="url(#mask-4)"></path>
                    </g>
                    <g id="Group-31">
                        <mask id="mask-6" sketch:name="Clip 30" fill="white">
                            <use xlink:href="#path-5"></use>
                        </mask>
                        <g id="Clip-30"></g>
                        <path id="Fill-29" d="M29.6754691,131.108517 C29.8784938,131.108517 30.0381852,131.048151 30.1553457,130.929029 C30.2789259,130.808298 30.3342963,130.645712 30.3342963,130.447712 L31.3871358,130.447712 L31.3927531,130.469444 C31.4039877,130.900054 31.2434938,131.271102 30.9088642,131.560054 C30.5806543,131.85142 30.1673827,132.000322 29.6754691,132.000322 C29.040716,132.000322 28.5544198,131.792663 28.2061481,131.38942 C27.8594815,130.984566 27.6885556,130.464615 27.6885556,129.83198 L27.6885556,129.708834 C27.6885556,129.081029 27.8594815,128.560273 28.2061481,128.1522 C28.5471975,127.742517 29.0375062,127.538883 29.666642,127.538883 C30.1890494,127.538883 30.6127531,127.689395 30.9297284,127.992834 C31.252321,128.293054 31.4039877,128.691468 31.3927531,129.182444 L31.3871358,129.205785 L30.3342963,129.205785 C30.3342963,128.986859 30.2789259,128.801737 30.1553457,128.653639 C30.0389877,128.505541 29.8784938,128.433102 29.666642,128.433102 C29.3705309,128.433102 29.1578765,128.55142 29.0318889,128.793688 C28.9091111,129.031127 28.845716,129.33698 28.845716,129.708834 L28.845716,129.83198 C28.845716,130.212688 28.9091111,130.518541 29.0318889,130.753566 C29.1578765,130.9902 29.3737407,131.108517 29.6754691,131.108517" fill="#FFFFFF" sketch:type="MSShapeGroup" mask="url(#mask-6)"></path>
                    </g>
                    <path id="Fill-32" d="M35.6952716,128.505783 L34.3254568,128.505783 L34.3254568,131.914441 L33.1618765,131.914441 L33.1618765,128.505783 L31.8145309,128.505783 L31.8145309,127.618002 L35.6952716,127.618002 L35.6952716,128.505783 Z" fill="#FFFFFF" sketch:type="MSShapeGroup"></path>
                    <path id="Fill-34" d="M38.8626975,127.61768 L40.0158457,127.61768 L40.0158457,131.914924 L38.8626975,131.914924 L38.8626975,129.295046 L38.8402284,129.291827 L37.4423272,131.914924 L36.2867716,131.914924 L36.2867716,127.61768 L37.4423272,127.61768 L37.4423272,130.22951 L37.4672037,130.236754 L38.8626975,127.61768 Z" fill="#FFFFFF" sketch:type="MSShapeGroup"></path>
                    <path id="Fill-36" d="M44.5848642,131.914683 L43.4293086,131.914683 L43.4293086,130.24778 L42.0201728,130.24778 L42.0201728,131.914683 L40.8638148,131.914683 L40.8638148,127.617439 L42.0201728,127.617439 L42.0201728,129.357585 L43.4293086,129.357585 L43.4293086,127.617439 L44.5848642,127.617439 L44.5848642,131.914683 Z" fill="#FFFFFF" sketch:type="MSShapeGroup"></path>
                    <path id="Fill-38" d="M48.0215988,127.61768 L49.1699321,127.61768 L49.1699321,131.914924 L48.0215988,131.914924 L48.0215988,129.295046 L47.9967222,129.291827 L46.597216,131.914924 L45.4416605,131.914924 L45.4416605,127.61768 L46.597216,127.61768 L46.597216,130.22951 L46.6236975,130.236754 L48.0215988,127.61768 Z" fill="#FFFFFF" sketch:type="MSShapeGroup"></path>
                    <path id="Fill-40" d="M53.7216173,131.914683 L52.5628519,131.914683 L52.5628519,130.553634 C52.4665556,130.57778 52.3662469,130.587439 52.2635309,130.598707 C52.1568025,130.61078 52.0669259,130.614805 51.9794568,130.614805 C51.3422963,130.614805 50.8616173,130.47878 50.518963,130.207537 C50.1755062,129.936293 50.0029753,129.525805 50.0029753,128.968829 L50.0029753,127.617439 L51.1585309,127.617439 L51.1585309,128.968829 C51.1585309,129.250537 51.2227284,129.449341 51.3463086,129.55639 C51.4714938,129.667463 51.6801358,129.72139 51.9794568,129.72139 C52.0725432,129.72139 52.169642,129.712537 52.2667407,129.702073 C52.3662469,129.69322 52.4633457,129.677122 52.5628519,129.657805 L52.5628519,127.617439 L53.7216173,127.617439 L53.7216173,131.914683 Z" fill="#FFFFFF" sketch:type="MSShapeGroup"></path>
                    <path id="Fill-42" d="M58.2823704,131.914683 L57.1292222,131.914683 L57.1292222,130.24778 L55.7160741,130.24778 L55.7160741,131.914683 L54.5629259,131.914683 L54.5629259,127.617439 L55.7160741,127.617439 L55.7160741,129.357585 L57.1292222,129.357585 L57.1292222,127.617439 L58.2823704,127.617439 L58.2823704,131.914683 Z" fill="#FFFFFF" sketch:type="MSShapeGroup"></path>
                    <mask id="mask-8" sketch:name="Clip 45" fill="white">
                        <use xlink:href="#path-7"></use>
                    </mask>
                    <g id="Clip-45"></g>
                    <path id="Fill-44" d="M64.6822222,131.914683 L63.5258642,131.914683 L63.5258642,127.617439 L64.6822222,127.617439 L64.6822222,131.914683 Z M60.4668519,129.900878 L60.4668519,131.033341 L61.2669136,131.033341 C61.5028395,131.033341 61.6801852,130.977 61.7925309,130.870756 C61.9137037,130.767732 61.9690741,130.630098 61.9690741,130.462683 C61.9690741,130.300098 61.9137037,130.164878 61.7925309,130.057829 C61.6801852,129.95078 61.5028395,129.900878 61.2669136,129.900878 L60.4668519,129.900878 Z M60.4668519,129.011488 L61.2669136,129.011488 C61.8454938,129.011488 62.295679,129.143488 62.6254938,129.409902 C62.9601235,129.673902 63.1222222,130.024024 63.1222222,130.45222 C63.1222222,130.889268 62.9601235,131.243415 62.6254938,131.510634 C62.295679,131.782683 61.8454938,131.914683 61.2669136,131.914683 L59.3064815,131.914683 L59.3064815,127.617439 L60.4668519,127.617439 L60.4668519,129.011488 Z" fill="#FFFFFF" sketch:type="MSShapeGroup" mask="url(#mask-8)"></path>
                    <path id="Fill-46" d="M69.0936358,125.747224 L69.1000556,125.773785 C69.1136975,126.105395 68.9941296,126.380663 68.7493765,126.595566 C68.5006111,126.807249 68.1707963,126.917517 67.7527099,126.917517 C67.3330185,126.917517 67.0007963,126.807249 66.7528333,126.595566 C66.500858,126.380663 66.3853025,126.105395 66.4021543,125.773785 L66.4077716,125.747224 L67.255179,125.747224 C67.255179,125.888078 67.2953025,126.00398 67.3747469,126.093322 C67.4565988,126.182663 67.5793765,126.228541 67.7527099,126.228541 C67.9204259,126.228541 68.0440062,126.182663 68.1234506,126.093322 C68.2045,126.00398 68.2430185,125.888078 68.2430185,125.747224 L69.0936358,125.747224 Z M68.4596852,127.617761 L69.6152407,127.617761 L69.6152407,131.915005 L68.4596852,131.915005 L68.4596852,129.295127 L68.4364136,129.291102 L67.0369074,131.915005 L65.8829568,131.915005 L65.8829568,127.617761 L67.0369074,127.617761 L67.0369074,130.22959 L67.0665988,130.236029 L68.4596852,127.617761 Z" fill="#FFFFFF" sketch:type="MSShapeGroup" mask="url(#mask-8)"></path>
                    <path id="Fill-47" d="M74.1678889,130.309193 L73.7249259,130.309193 L73.7249259,131.914924 L72.5701728,131.914924 L72.5701728,127.61768 L73.7249259,127.61768 L73.7249259,129.254802 L74.0683827,129.254802 L75.0465926,127.61768 L76.5110988,127.61768 L75.0971481,129.612973 L76.6394938,131.914924 L75.0971481,131.914924 L74.1678889,130.309193 Z" fill="#FFFFFF" sketch:type="MSShapeGroup" mask="url(#mask-8)"></path>
                    <path id="Fill-48" d="M78.0144444,129.811134 C78.0144444,130.202305 78.0826543,130.514598 78.2174691,130.753646 C78.3587037,130.99028 78.5753704,131.108598 78.8819136,131.108598 C79.1812346,131.108598 79.4035185,130.99028 79.5423457,130.748012 C79.6755556,130.514598 79.7485802,130.199085 79.7485802,129.811134 L79.7485802,129.726622 C79.7485802,129.345915 79.6755556,129.034427 79.5367284,128.797793 C79.3995062,128.5515 79.1788272,128.433183 78.8762963,128.433183 C78.5753704,128.433183 78.3611111,128.55472 78.2174691,128.797793 C78.0826543,129.040061 78.0144444,129.347524 78.0144444,129.726622 L78.0144444,129.811134 Z M76.8604938,129.726622 C76.8604938,129.089159 77.038642,128.560354 77.3965432,128.15228 C77.7512346,127.742598 78.2423457,127.538963 78.8762963,127.538963 C79.5110494,127.538963 80.0037654,127.742598 80.365679,128.15228 C80.7227778,128.560354 80.9009259,129.085939 80.9009259,129.726622 L80.9009259,129.811134 C80.9009259,130.456646 80.7259877,130.984646 80.365679,131.3895 C80.0093827,131.792744 79.5166667,132.000402 78.8819136,132.000402 C78.2503704,132.000402 77.7544444,131.792744 77.3965432,131.3895 C77.038642,130.984646 76.8604938,130.456646 76.8604938,129.811134 L76.8604938,129.726622 Z" fill="#FFFFFF" sketch:type="MSShapeGroup" mask="url(#mask-8)"></path>
                    <path id="Fill-49" d="M84.206537,130.564983 L84.2306111,130.564983 L85.3332037,127.61752 L86.782463,127.61752 L86.782463,131.914763 L85.6269074,131.914763 L85.6269074,129.347202 L85.6052407,129.346398 L84.6109815,131.914763 L83.8349938,131.914763 L82.8656111,129.39952 L82.841537,129.402739 L82.841537,131.914763 L81.6819691,131.914763 L81.6819691,127.61752 L83.1159815,127.61752 L84.206537,130.564983 Z" fill="#FFFFFF" sketch:type="MSShapeGroup" mask="url(#mask-8)"></path>
                    <path id="Fill-50" d="M91.4926358,131.914683 L90.3354753,131.914683 L90.3354753,128.512463 L88.9199198,128.512463 L88.9199198,131.914683 L87.7651667,131.914683 L87.7651667,127.617439 L91.4926358,127.617439 L91.4926358,131.914683 Z" fill="#FFFFFF" sketch:type="MSShapeGroup" mask="url(#mask-8)"></path>
                    <path id="Fill-51" d="M96.0704012,127.61768 L96.0704012,131.914924 L94.9164506,131.914924 L94.9164506,128.512705 L93.8868827,128.512705 L93.8868827,129.450388 C93.8868827,130.294705 93.7625,130.9209 93.5000926,131.3169 C93.2433025,131.715315 92.801142,131.914924 92.175216,131.914924 L91.9882407,131.914924 L91.9778086,131.000583 L92.098179,130.998973 C92.3629938,130.998973 92.5331173,130.8879 92.6125617,130.672998 C92.6928086,130.45729 92.7329321,130.046802 92.7329321,129.450388 L92.7329321,127.61768 L96.0704012,127.61768 Z" fill="#FFFFFF" sketch:type="MSShapeGroup" mask="url(#mask-8)"></path>
                    <path id="Fill-52" d="M98.6925494,128.433022 C98.4614383,128.433022 98.2832901,128.512705 98.1540926,128.670461 C98.0297099,128.833046 97.9510679,129.045534 97.9269938,129.309534 L97.9366235,129.328046 L99.3433519,129.328046 L99.3433519,129.24112 C99.3433519,128.993217 99.2911914,128.793607 99.1916852,128.651144 C99.0881667,128.505461 98.9252654,128.433022 98.6925494,128.433022 M98.7663765,132.000241 C98.1260062,132.000241 97.6316852,131.803046 97.272179,131.408656 C96.909463,131.015071 96.7305123,130.510412 96.7305123,129.887437 L96.7305123,129.73129 C96.7305123,129.088998 96.9070556,128.560193 97.2569321,128.15212 C97.6044012,127.738412 98.0810679,127.537193 98.6925494,127.539607 C99.2671173,127.539607 99.7068704,127.713461 100.015821,128.068412 C100.322364,128.422559 100.478846,128.899046 100.478846,129.496266 L100.478846,130.09751 L97.923784,130.09751 L97.9125494,130.121656 C97.9318086,130.414632 98.0216852,130.650461 98.1789691,130.834778 C98.3410679,131.019095 98.5769938,131.108437 98.8907593,131.108437 C99.1515617,131.108437 99.3674259,131.081071 99.5463765,131.033583 C99.7277346,130.976437 99.9171173,130.895949 100.110512,130.788095 L100.422673,131.502022 C100.252549,131.642071 100.019031,131.761193 99.7253272,131.854559 C99.4348333,131.951949 99.1122407,132.000241 98.7663765,132.000241" fill="#FFFFFF" sketch:type="MSShapeGroup" mask="url(#mask-8)"></path>
                    <path id="Fill-53" d="M102.819086,130.309193 L102.376123,130.309193 L102.376123,131.914924 L101.219765,131.914924 L101.219765,127.61768 L102.376123,127.61768 L102.376123,129.254802 L102.71958,129.254802 L103.702605,127.61768 L105.162296,127.61768 L103.746741,129.612973 L105.291494,131.914924 L103.752358,131.914924 L102.819086,130.309193 Z" fill="#FFFFFF" sketch:type="MSShapeGroup" mask="url(#mask-8)"></path>
                    <path id="Fill-54" d="M107.499969,131.108517 C107.699784,131.108517 107.861883,131.048151 107.975833,130.929029 C108.095401,130.808298 108.153981,130.645712 108.153981,130.447712 L109.210833,130.447712 L109.218858,130.469444 C109.228488,130.900054 109.071204,131.271102 108.733364,131.560054 C108.40034,131.85142 107.988673,132.000322 107.499969,132.000322 C106.867623,132.000322 106.37571,131.792663 106.028241,131.38942 C105.687994,130.984566 105.511451,130.464615 105.511451,129.83198 L105.511451,129.708834 C105.511451,129.081029 105.681574,128.560273 106.028241,128.1522 C106.37571,127.742517 106.860401,127.538883 107.488735,127.538883 C108.016759,127.538883 108.436451,127.689395 108.752623,127.992834 C109.072006,128.293054 109.228488,128.691468 109.218858,129.182444 L109.210833,129.205785 L108.153981,129.205785 C108.153981,128.986859 108.095401,128.801737 107.978241,128.653639 C107.863488,128.505541 107.699784,128.433102 107.488735,128.433102 C107.189414,128.433102 106.980772,128.55142 106.854784,128.793688 C106.731204,129.031127 106.665401,129.33698 106.665401,129.708834 L106.665401,129.83198 C106.665401,130.212688 106.731204,130.518541 106.854784,130.753566 C106.980772,130.9902 107.195031,131.108517 107.499969,131.108517" fill="#FFFFFF" sketch:type="MSShapeGroup" mask="url(#mask-8)"></path>
                    <path id="Fill-55" d="M71.0872099,81.2963049 C74.5161605,78.5090122 76.8056049,73.4905976 76.8056049,67.7655 C81.5506049,67.7655 89.6836296,64.2353049 93.8781358,58.9955488 C95.3330123,70.9584512 100.047519,83.4115244 103.291099,90.9017195 C95.6869012,87.5574512 83.1242469,82.7402561 71.0872099,81.2963049 M64.9033827,78.3810366 L64.5671481,78.3617195 L64.4740617,78.3657439 L64.3793704,78.3617195 L64.0431358,78.3810366 C60.8773951,78.3407927 57.3625802,73.9888171 57.3625802,67.7655 L57.3625802,62.5241341 L52.141716,62.5241341 C50.1395556,62.5241341 46.1593086,61.2620854 42.7231358,58.9206951 C39.5244938,56.7451098 37.6138148,54.2234268 37.6138148,52.1798415 C37.6138148,50.1080854 39.6135679,47.3948415 42.8234444,45.0953049 C46.2860988,42.6203049 50.2085679,41.2842073 52.141716,41.2842073 L57.3625802,41.2842073 L57.3625802,36.0436463 C57.3625802,29.809061 60.8838148,25.4562805 64.0535679,25.4289146 L64.3970247,25.4442073 L64.4740617,25.4409878 L64.5486914,25.4442073 L64.8945556,25.4289146 C68.0635062,25.4562805 71.5839383,29.809061 71.5839383,36.0436463 L71.5839383,41.2842073 L76.8056049,41.2842073 C78.7379506,41.2842073 82.6612222,42.6203049 86.1238765,45.0953049 C89.3345556,47.3948415 91.3343086,50.1080854 91.3343086,52.1798415 C91.3343086,54.2234268 89.4228272,56.7451098 86.2233827,58.9206951 C82.7872099,61.2620854 78.806963,62.5241341 76.8056049,62.5241341 L71.5839383,62.5241341 L71.5839383,67.7655 C71.5839383,73.9888171 68.0691235,78.3407927 64.9033827,78.3810366 M25.6554198,90.9017195 C28.9006049,83.4115244 33.6143086,70.9584512 35.0691852,58.9955488 C39.2636914,64.2353049 47.396716,67.7655 52.141716,67.7655 C52.141716,73.4905976 54.4311605,78.5090122 57.8593086,81.2963049 C45.8230741,82.7402561 33.2604198,87.5574512 25.6554198,90.9017195 M25.5165926,13.0458659 C33.084679,16.345061 45.7396173,21.1606463 57.8159753,22.5482561 C54.4119012,25.3419878 52.141716,30.3394756 52.141716,36.0436463 C47.4007284,36.0436463 39.2765309,39.8563537 35.0788148,45.2498415 C33.6247407,33.2072561 28.8404198,20.6535732 25.5165926,13.0458659 M103.429926,13.0458659 C100.107704,20.6535732 95.3217778,33.2072561 93.8677037,45.2498415 C89.6715926,39.8563537 81.5465926,36.0436463 76.8056049,36.0436463 C76.8056049,30.3394756 74.5362222,25.3419878 71.1305432,22.5482561 C83.2077037,21.1606463 95.8618395,16.345061 103.429926,13.0458659 M111.156099,95.4219146 C111.156099,95.4219146 98.6536296,71.0638902 98.6536296,52.0808415 C98.6536296,32.9118659 111.420914,8.3180122 111.420914,8.3180122 L111.420914,8.31640244 C112.736963,4.67191463 111.693753,3.21910976 107.939,5.15645122 C107.939,5.15645122 83.6506667,17.6972561 64.726037,17.6972561 C64.6425802,17.6972561 64.5575185,17.6956463 64.4740617,17.6948415 C64.3898025,17.6956463 64.3047407,17.6972561 64.2204815,17.6972561 C45.2966543,17.6972561 21.008321,5.15645122 21.008321,5.15645122 C17.2527654,3.21910976 16.210358,4.67191463 17.5272099,8.31640244 L17.5272099,8.3180122 C17.5272099,8.3180122 30.2944938,32.9118659 30.2944938,52.0808415 C30.2944938,71.0638902 17.7904198,95.4219146 17.7904198,95.4219146 C15.859679,99.187939 17.277642,100.721232 20.931284,98.9199146 L20.9393086,98.9142805 C20.9393086,98.9142805 45.3760988,86.1537439 64.4740617,86.1094756 C83.5712222,86.1537439 108.008815,98.9142805 108.008815,98.9142805 L108.015235,98.9199146 C111.669679,100.721232 113.088444,99.187939 111.156099,95.4219146" fill="#FFFFFF" sketch:type="MSShapeGroup" mask="url(#mask-8)"></path>
                </g>
            </g>
        </g>
    </g>
</svg>