<?xml version="1.0" standalone="no"?>
<!DOCTYPE svg PUBLIC "-//W3C//DTD SVG 20010904//EN"
 "http://www.w3.org/TR/2001/REC-SVG-20010904/DTD/svg10.dtd">
<svg version="1.0" xmlns="http://www.w3.org/2000/svg"
 width="300.000000pt" height="300.000000pt" viewBox="0 0 300.000000 300.000000"
 preserveAspectRatio="xMidYMid meet">
<metadata>
Created by potrace 1.10, written by Peter Selinger 2001-2011
</metadata>
<g transform="translate(0.000000,300.000000) scale(0.100000,-0.100000)"
fill="#000000" stroke="none">
<path d="M150 1945 l0 -1055 729 0 730 0 19 -52 c11 -29 50 -137 88 -241 75
-206 106 -258 188 -314 28 -19 69 -39 93 -46 l43 -11 37 -113 37 -113 313 0
312 0 -74 214 -74 214 24 34 c62 92 72 214 26 345 l-29 83 119 0 119 0 0 1055
0 1055 -1350 0 -1350 0 0 -1055z m2630 0 l0 -975 -99 0 -99 0 -60 163 c-33 89
-81 222 -107 295 -27 75 -53 132 -61 132 -27 0 -100 -68 -128 -119 -45 -83
-40 -143 23 -313 28 -76 51 -142 51 -148 0 -7 -348 -10 -1035 -10 l-1035 0 0
975 0 975 1275 0 1275 0 0 -975z"/>
<path d="M1390 2670 l0 -40 -198 0 c-180 0 -200 -2 -215 -18 -22 -24 -21 -45
1 -65 16 -15 46 -17 215 -17 l197 0 0 -75 0 -75 -253 0 c-183 0 -256 -3 -265
-12 -16 -16 -15 -53 1 -67 9 -7 99 -12 263 -13 l249 -3 3 -72 3 -73 -261 0
c-161 0 -269 -4 -281 -10 -22 -12 -26 -59 -7 -78 9 -9 85 -12 280 -12 l268 0
0 -75 0 -75 -239 0 c-204 0 -242 -2 -255 -16 -19 -19 -20 -35 -3 -57 11 -15
41 -17 252 -19 l240 -3 3 -72 3 -73 -223 0 c-289 0 -273 9 -265 -149 9 -178
36 -242 112 -271 68 -26 132 19 196 135 51 93 96 151 131 168 18 9 36 13 40
11 4 -3 8 -68 8 -145 l0 -139 115 0 115 0 0 140 c0 132 1 140 19 140 31 0 84
-58 143 -160 73 -124 105 -155 163 -155 94 0 140 71 156 245 12 131 8 157 -27
170 -14 6 -122 10 -240 10 l-215 0 3 73 3 72 242 3 c233 2 243 3 253 23 9 16
8 26 -5 45 l-15 24 -240 0 -240 0 0 75 0 75 268 0 c195 0 271 3 280 12 19 19
15 66 -7 78 -12 6 -120 10 -280 10 l-261 0 0 75 0 75 253 0 c266 0 277 2 277
45 0 43 -11 45 -277 45 l-253 0 0 75 0 75 199 0 c195 0 200 1 215 22 20 29 20
34 -4 58 -19 19 -33 20 -215 20 l-195 0 0 40 0 40 -115 0 -115 0 0 -40z"/>
</g>
</svg>
