<?xml version="1.0" encoding="UTF-8" standalone="no"?>
<svg
   xmlns:dc="http://purl.org/dc/elements/1.1/"
   xmlns:cc="http://creativecommons.org/ns#"
   xmlns:rdf="http://www.w3.org/1999/02/22-rdf-syntax-ns#"
   xmlns:svg="http://www.w3.org/2000/svg"
   xmlns="http://www.w3.org/2000/svg"
   xmlns:sodipodi="http://sodipodi.sourceforge.net/DTD/sodipodi-0.dtd"
   xmlns:inkscape="http://www.inkscape.org/namespaces/inkscape"
   version="1.0"
   width="300.000000pt"
   height="300.000000pt"
   viewBox="0 0 300.000000 300.000000"
   preserveAspectRatio="xMidYMid meet"
   id="svg2"
   inkscape:version="0.91 r13725"
   sodipodi:docname="uLJoQHwSRr.svg">
  <defs
     id="defs12" />
  <sodipodi:namedview
     pagecolor="#ffffff"
     bordercolor="#666666"
     borderopacity="1"
     objecttolerance="10"
     gridtolerance="10"
     guidetolerance="10"
     inkscape:pageopacity="0"
     inkscape:pageshadow="2"
     inkscape:window-width="640"
     inkscape:window-height="480"
     id="namedview10"
     showgrid="false"
     inkscape:zoom="0.62933333"
     inkscape:cx="187.5"
     inkscape:cy="187.5"
     inkscape:window-x="0"
     inkscape:window-y="0"
     inkscape:window-maximized="0"
     inkscape:current-layer="svg2" />
  <metadata
     id="metadata4">
Created by potrace 1.10, written by Peter Selinger 2001-2011
<rdf:RDF>
  <cc:Work
     rdf:about="">
    <dc:format>image/svg+xml</dc:format>
    <dc:type
       rdf:resource="http://purl.org/dc/dcmitype/StillImage" />
    <dc:title></dc:title>
  </cc:Work>
</rdf:RDF>
</metadata>
  <g
     transform="translate(0.000000,300.000000) scale(0.050000,-0.050000)"
     fill="#000000"
     stroke="none"
     id="g6">
    <path
       d="M1020 5903 c0 -54 -13 -136 -30 -183 -16 -47 -30 -111 -30 -143 0 -70 -10 -71 -143 -2 -129 65 -136 74 -137 170 0 41 -9 75 -20 75 -11 0 -20 -31 -20 -70 0 -87 -16 -87 -157 -2 -118 71 -230 115 -193 75 31 -33 266 -177 384 -235 58 -29 110 -68 116 -86 6 -19 37 -48 70 -63 59 -29 540 -492 540 -520 0 -57 -237 -74 -401 -29 -60 17 -207 48 -326 69 -245 44 -290 67 -367 184 -30 45 -58 71 -63 57 -4 -13 20 -64 55 -113 75 -106 75 -107 12 -107 -27 0 -50 -7 -50 -15 0 -19 231 -65 321 -65 79 0 60 -32 -30 -48 -52 -10 -83 -34 -126 -98 -44 -65 -72 -86 -126 -94 -93 -14 -199 -74 -199 -114 0 -29 3 -29 35 -1 19 18 60 37 90 43 30 7 75 16 100 21 25 5 90 53 145 106 124 120 289 173 372 119 77 -50 424 -66 542 -25 266 91 535 -45 537 -271 1 -125 18 -161 135 -286 48 -51 80 -102 73 -114 -7 -11 5 -41 28 -64 92 -99 100 -223 24 -365 -70 -132 -103 -157 -271 -209 -171 -54 -319 -168 -434 -335 -116 -170 -163 -185 -577 -185 -389 0 -424 -7 -519 -110 -75 -81 -146 -110 -269 -110 l-111 0 0 -70 c0 -84 -9 -83 146 -18 68 29 156 56 194 59 340 32 350 31 510 -12 88 -23 236 -49 328 -56 l168 -13 -55 -65 c-109 -130 -264 -194 -621 -257 -99 -17 -261 -65 -360 -106 -99 -42 -209 -87 -245 -101 -41 -16 -65 -40 -65 -63 0 -47 -4 -47 120 2 56 22 106 40 113 40 14 0 -3 -217 -23 -280 l-16 -50 53 48 c44 41 53 66 53 152 0 168 83 215 520 297 314 59 417 110 568 281 l115 132 144 -1 c94 0 156 -10 182 -30 21 -16 62 -29 91 -29 90 0 264 -103 337 -199 82 -109 80 -143 -34 -461 -81 -227 -103 -377 -64 -439 24 -38 34 -11 47 121 4 50 44 167 88 260 122 259 132 291 118 378 -14 92 -8 95 129 46 83 -30 112 -31 214 -10 329 68 527 -37 669 -353 33 -73 77 -151 97 -173 70 -77 184 -351 173 -418 -9 -54 -79 -222 -130 -312 -123 -216 -185 -482 -182 -777 l2 -193 25 200 c25 212 62 350 93 350 10 0 18 28 18 61 0 34 24 113 53 175 29 63 83 180 120 260 77 169 85 273 28 397 -47 104 -36 117 51 61 86 -56 124 -151 147 -370 11 -96 29 -205 40 -244 12 -38 16 -115 11 -170 -9 -84 -7 -92 11 -50 31 73 61 12 74 -152 10 -125 45 -161 45 -47 0 87 23 73 115 -66 108 -164 125 -213 125 -366 0 -101 6 -129 30 -129 101 0 28 323 -129 576 -55 90 -101 169 -101 175 0 6 -23 61 -50 121 -33 72 -46 127 -38 160 8 32 2 62 -18 84 -80 88 -90 404 -21 674 57 222 31 427 -73 574 -184 261 -106 494 264 789 166 132 196 207 160 385 -93 448 47 672 678 1079 171 110 336 212 365 225 111 51 24 123 -93 77 -35 -14 -107 -52 -160 -85 -118 -73 -132 -62 -63 48 139 220 321 367 668 540 225 112 241 124 241 178 l0 58 -195 -90 c-107 -50 -274 -144 -370 -209 -96 -64 -175 -106 -175 -93 1 13 25 132 54 264 56 257 71 470 34 470 -28 0 -77 -167 -62 -208 6 -15 4 -58 -6 -95 -9 -37 -40 -152 -67 -257 -28 -104 -56 -213 -61 -242 -6 -29 -56 -90 -113 -140 -57 -48 -158 -144 -226 -212 -208 -211 -376 -240 -601 -104 -127 77 -142 81 -249 70 -555 -56 -752 -36 -1002 103 l-129 71 -397 -25 c-516 -34 -732 -19 -855 59 -49 32 -115 63 -147 71 -31 8 -125 76 -210 153 -84 76 -164 147 -178 158 -45 35 -51 121 -18 227 36 115 45 371 13 371 -11 0 -20 -44 -20 -97z"
       id="path8" />
  </g>
  <ellipse
     style="fill:#ffffff"
     id="path3340"
     cx="93.958946"
     cy="176.69453"
     rx="17.79661"
     ry="28.601696"
     transform="matrix(0.92187673,-0.38748329,0.38748329,0.92187673,0,0)" />
</svg>
