<?xml version="1.0" standalone="no"?>
<!DOCTYPE svg PUBLIC "-//W3C//DTD SVG 20010904//EN"
 "http://www.w3.org/TR/2001/REC-SVG-20010904/DTD/svg10.dtd">
<svg version="1.0" xmlns="http://www.w3.org/2000/svg"
 width="300.000000pt" height="416.000000pt" viewBox="0 0 300.000000 416.000000"
 preserveAspectRatio="xMidYMid meet">
<metadata>
Created by potrace 1.10, written by Peter Selinger 2001-2011
</metadata>
<g transform="translate(0.000000,416.000000) scale(0.100000,-0.100000)"
fill="#000000" stroke="none">
<path d="M1398 4146 c-86 -24 -187 -109 -219 -184 -11 -24 -19 -65 -19 -90 l0
-47 28 53 c61 118 203 191 343 178 83 -9 120 -23 185 -72 54 -41 68 -58 101
-118 l22 -41 0 50 c1 91 -78 199 -186 251 -68 34 -177 42 -255 20z"/>
<path d="M1398 3876 c-82 -22 -175 -96 -212 -169 -25 -46 -26 -58 -26 -198 l0
-149 -252 -2 -253 -3 -3 -132 -3 -132 153 -3 153 -3 0 -100 0 -100 -287 -3
-288 -2 0 -165 0 -165 135 0 135 0 0 -152 0 -153 -83 -54 c-45 -30 -191 -128
-324 -218 l-242 -163 17 -30 c9 -17 22 -28 27 -26 6 2 138 88 295 191 762 503
926 608 969 621 68 21 323 19 386 -3 27 -9 132 -71 234 -138 723 -474 1033
-676 1035 -673 1 2 10 15 19 30 l17 27 -243 164 c-133 90 -279 188 -324 218
l-83 54 0 153 0 152 135 0 135 0 0 165 0 165 -287 2 -288 3 0 100 0 100 153 3
153 3 -3 132 -3 132 -252 3 -253 2 0 153 0 152 -38 58 c-89 136 -246 196 -404
153z m852 -656 l0 -70 -750 0 -750 0 0 70 0 70 750 0 750 0 0 -70z m-310 -236
l0 -104 -440 0 -440 0 0 105 0 105 440 0 440 -1 0 -105z m580 -269 l0 -65
-135 0 -135 0 0 -165 c0 -91 -2 -165 -5 -165 -2 0 -101 65 -219 145 -129 88
-246 159 -296 180 -81 35 -83 35 -230 35 -147 0 -149 0 -230 -35 -50 -21 -167
-92 -296 -180 -118 -80 -217 -145 -219 -145 -3 0 -5 74 -5 165 l0 165 -135 0
-135 0 0 65 0 65 1020 0 1020 0 0 -65z"/>
<path d="M710 2034 c-327 -212 -597 -388 -599 -390 -2 -2 0 -19 6 -37 37 -114
496 -1394 502 -1400 4 -4 182 -52 394 -106 l387 -99 0 1209 0 1209 -47 0 c-46
0 -73 -16 -643 -386z"/>
<path d="M1607 2413 c-10 -9 -9 -2401 1 -2406 6 -3 772 190 779 197 3 3 74
200 278 776 75 212 158 446 185 520 26 74 46 138 44 141 -2 3 -204 136 -449
295 -245 159 -513 333 -595 387 -131 85 -156 97 -194 97 -23 0 -46 -3 -49 -7z"/>
</g>
</svg>
