<?xml version="1.0" standalone="no"?>
<!DOCTYPE svg PUBLIC "-//W3C//DTD SVG 20010904//EN"
 "http://www.w3.org/TR/2001/REC-SVG-20010904/DTD/svg10.dtd">
<svg version="1.0" xmlns="http://www.w3.org/2000/svg"
 width="300.000000pt" height="300.000000pt" viewBox="0 0 300.000000 300.000000"
 preserveAspectRatio="xMidYMid meet">
<metadata>
Created by potrace 1.10, written by Peter Selinger 2001-2011
</metadata>
<g transform="translate(0.000000,300.000000) scale(0.050000,-0.050000)"
fill="#000000" stroke="none">
<path d="M2088 5755 c6 -80 16 -230 23 -335 34 -534 200 -1014 432 -1253 l81
-82 -22 -628 c-35 -1029 -107 -1221 -441 -1190 -133 12 -209 33 -580 162
-1025 356 -1578 -360 -1581 -2044 l0 -205 260 0 260 0 0 195 c0 476 69 1008
161 1248 147 382 354 447 859 271 643 -224 988 -201 1244 82 241 267 307 550
337 1441 39 1197 205 1662 672 1884 887 424 1675 -630 1676 -2241 1 -1244
-526 -2017 -1563 -2294 -578 -155 -968 -65 -1623 374 -522 349 -741 407 -1031
273 -290 -134 -431 -438 -464 -998 l-14 -235 260 0 259 0 23 261 c55 611 94
621 775 197 555 -344 801 -435 1220 -452 1033 -42 1963 515 2397 1436 504
1066 331 2811 -364 3679 -753 941 -2030 762 -2514 -353 l-68 -156 -23 59 c-61
155 -135 703 -139 1024 0 19 -66 25 -262 25 l-261 0 11 -145z"/>
</g>
</svg>
