<?xml version="1.0" standalone="no"?>
<!DOCTYPE svg PUBLIC "-//W3C//DTD SVG 20010904//EN"
 "http://www.w3.org/TR/2001/REC-SVG-20010904/DTD/svg10.dtd">
<svg version="1.0" xmlns="http://www.w3.org/2000/svg"
 width="300.000000pt" height="300.000000pt" viewBox="0 0 300.000000 300.000000"
 preserveAspectRatio="xMidYMid meet">
<metadata>
Created by potrace 1.10, written by Peter Selinger 2001-2011
</metadata>
<g transform="translate(0.000000,300.000000) scale(0.100000,-0.100000)"
fill="#000000" stroke="none">
<path d="M1193 2979 c-65 -25 -130 -88 -162 -156 l-24 -51 -166 -4 c-157 -3
-169 -5 -216 -30 -98 -52 -151 -134 -162 -253 l-6 -65 -164 0 c-178 0 -196 -4
-244 -57 -43 -46 -49 -82 -49 -292 0 -184 1 -200 23 -241 66 -132 248 -129
308 4 16 36 19 68 19 259 l0 217 55 0 54 0 3 -812 c3 -803 3 -814 24 -859 29
-63 75 -112 131 -140 26 -13 50 -25 53 -27 2 -1 -101 -108 -230 -237 l-235
-235 85 0 85 0 230 230 230 230 672 0 671 0 224 -230 225 -230 84 0 84 0 -235
235 c-129 129 -232 236 -230 238 3 2 21 10 40 17 50 21 107 76 138 134 l27 51
3 818 2 817 54 0 54 0 4 -229 3 -229 30 -43 c61 -86 176 -103 252 -36 59 52
63 72 63 304 0 189 -2 210 -21 250 -14 29 -35 52 -63 68 -41 24 -50 25 -209
25 l-167 0 0 48 c0 88 -26 149 -88 212 -79 77 -122 90 -307 90 l-143 0 -30 53
c-43 77 -74 109 -134 142 l-53 30 -270 2 c-251 2 -274 1 -322 -18z m1153 -355
c15 -11 37 -33 48 -48 21 -27 21 -34 21 -960 l0 -933 -27 -35 c-55 -72 -6 -68
-890 -68 l-793 0 -40 23 c-22 13 -49 40 -62 62 l-23 40 0 908 c0 885 1 909 20
947 18 36 55 69 90 83 8 3 378 5 822 4 798 -2 807 -2 834 -23z m-2116 -429 l0
-115 -55 0 -55 0 0 99 c0 92 2 101 22 115 12 9 37 16 55 16 l33 0 0 -115z
m2628 99 c20 -14 22 -23 22 -115 l0 -99 -55 0 -55 0 0 115 0 115 33 0 c18 0
43 -7 55 -16z m-2628 -370 c0 -51 -15 -74 -50 -74 -40 0 -60 24 -60 71 l0 39
55 0 55 0 0 -36z m2650 -7 c0 -50 -13 -67 -51 -67 -39 0 -59 25 -59 71 l0 39
55 0 55 0 0 -43z"/>
<path d="M785 2401 c-89 -55 -94 -78 -94 -431 0 -162 4 -313 9 -334 12 -54 38
-87 91 -114 l44 -22 681 2 681 3 37 29 c73 55 76 71 76 421 0 173 -4 325 -10
344 -11 39 -51 86 -92 107 -22 12 -141 14 -710 14 -647 0 -685 -1 -713 -19z
m1383 -107 c22 -15 22 -16 22 -333 0 -233 -3 -320 -12 -329 -8 -8 -63 -12
-183 -12 l-170 0 -20 37 c-38 69 -52 73 -303 73 -253 0 -268 -4 -302 -70 l-20
-40 -169 0 c-141 0 -172 3 -185 16 -14 13 -16 57 -16 325 0 296 1 310 20 329
20 20 33 20 668 20 570 0 650 -2 670 -16z"/>
<path d="M846 1255 c-46 -16 -101 -67 -125 -115 -58 -114 -12 -253 102 -306
159 -74 329 32 329 205 0 158 -157 269 -306 216z"/>
<path d="M2001 1257 c-18 -7 -51 -28 -73 -46 -160 -135 -60 -400 150 -401 132
0 226 95 227 231 0 56 -4 73 -30 115 -56 90 -181 136 -274 101z"/>
<path d="M1270 1155 l0 -55 230 0 230 0 0 55 0 55 -230 0 -230 0 0 -55z"/>
<path d="M1270 925 l0 -55 230 0 230 0 0 55 0 55 -230 0 -230 0 0 -55z"/>
<path d="M810 290 l0 -60 690 0 690 0 0 60 0 60 -690 0 -690 0 0 -60z"/>
<path d="M580 60 l0 -60 920 0 920 0 0 60 0 60 -920 0 -920 0 0 -60z"/>
</g>
</svg>
