<?xml version="1.0" standalone="no"?>
<!DOCTYPE svg PUBLIC "-//W3C//DTD SVG 20010904//EN"
 "http://www.w3.org/TR/2001/REC-SVG-20010904/DTD/svg10.dtd">
<svg version="1.0" xmlns="http://www.w3.org/2000/svg"
 width="300.000000pt" height="300.000000pt" viewBox="0 0 300.000000 300.000000"
 preserveAspectRatio="xMidYMid meet">
<metadata>
Created by potrace 1.10, written by Peter Selinger 2001-2011
</metadata>
<g transform="translate(0.000000,300.000000) scale(0.050000,-0.050000)"
fill="#000000" stroke="none">
<path d="M1060 5970 c-680 -188 -1141 -1011 -1042 -1864 160 -1374 1249 -2117
1971 -1345 264 282 283 879 29 879 -69 0 -205 -52 -194 -75 170 -333 92 -595
-225 -756 -399 -201 -802 15 -1080 581 -363 737 -298 1524 166 2021 554 593
1436 247 1247 -489 -18 -71 -30 -130 -27 -133 17 -14 217 -109 231 -109 64 0
125 439 86 619 -104 483 -666 807 -1162 671z"/>
<path d="M4460 5970 c-534 -147 -791 -572 -669 -1106 46 -203 46 -203 188
-135 66 32 121 62 121 67 0 4 -15 58 -32 119 -209 719 690 1087 1238 507 602
-639 498 -1988 -195 -2528 -493 -385 -1245 58 -981 578 57 112 44 136 -83 160
-318 60 -335 -554 -25 -882 747 -790 1861 49 1970 1483 77 1024 -743 1954
-1532 1737z"/>
<path d="M1184 5056 c-108 -108 163 -424 496 -579 960 -450 982 -492 995
-1917 6 -582 16 -919 29 -935 29 -35 563 -35 592 0 13 16 24 352 29 945 13
1420 32 1456 998 1908 319 149 589 461 497 572 -51 62 -115 36 -187 -76 -95
-149 -207 -237 -451 -356 -300 -146 -443 -143 -502 11 -43 115 -180 102 -180
-18 0 -56 18 -89 86 -160 l85 -89 -95 -71 c-181 -136 -321 -355 -389 -615 -29
-106 -35 -264 -42 -1011 l-8 -885 -137 0 -137 0 -8 885 c-8 969 -10 982 -137
1254 -72 156 -171 280 -299 375 l-95 72 59 49 c117 99 156 252 72 283 -57 22
-111 -6 -135 -69 -58 -153 -201 -156 -500 -13 -241 116 -357 207 -453 358 -70
109 -129 136 -183 82z"/>
<path d="M715 4898 c-126 -73 159 -409 493 -581 l177 -92 -147 -44 c-184 -55
-394 -164 -469 -242 -115 -120 18 -215 157 -111 239 179 771 299 935 211 44
-23 41 -26 -73 -67 -273 -99 -505 -333 -456 -460 25 -66 106 -35 223 84 258
263 593 309 721 99 103 -168 110 -228 119 -1118 l9 -833 -117 -34 c-815 -235
-611 -1149 307 -1376 l166 -41 0 -113 c0 -119 36 -180 105 -180 87 0 126 207
67 349 -37 89 -88 119 -285 168 -776 192 -940 877 -247 1026 198 42 183 -44
176 1006 -6 896 -8 924 -51 1046 -130 361 -336 531 -913 754 -396 153 -568
268 -767 516 -48 59 -75 66 -130 33z"/>
<path d="M5146 4855 c-213 -253 -369 -358 -740 -497 -620 -233 -869 -459 -956
-868 -32 -154 -45 -1836 -14 -1885 9 -13 88 -43 175 -65 677 -173 511 -832
-257 -1023 -90 -23 -185 -54 -211 -71 -133 -84 -138 -446 -6 -446 56 0 83 42
83 129 1 155 9 165 173 201 916 204 1133 1144 320 1380 l-116 34 8 833 c9 891
15 948 119 1118 128 210 465 163 719 -99 111 -115 166 -139 213 -92 99 99
-186 387 -471 476 l-115 36 60 24 c201 81 703 -32 944 -212 88 -67 206 -48
206 32 0 81 -262 244 -518 321 l-147 44 167 87 c350 181 634 515 499 587 -59
32 -76 26 -135 -44z"/>
<path d="M2171 1075 c58 -191 264 -329 594 -397 58 -12 134 -39 170 -59 63
-37 67 -37 130 -1 36 21 133 53 215 73 320 76 492 196 549 384 l14 45 -843 0
-843 0 14 -45z"/>
</g>
</svg>
